<svg width="21" height="41" viewBox="0 0 21 41" fill="none" xmlns="http://www.w3.org/2000/svg">
<path d="M20.6544 14.2187C20.6544 15.5081 20.6634 16.7975 20.6524 18.0879C20.6072 23.4263 16.6395 27.7618 11.4257 28.3477C6.05304 28.9527 1.0613 25.169 0.156822 19.8194C0.0935086 19.4436 0.0874787 19.0546 0.0824538 18.6718C0.0492895 15.9282 0.00708028 13.1846 4.54188e-05 10.44C-0.00698944 7.84409 0.803025 5.51555 2.54667 3.587C5.32041 0.518791 8.79161 -0.653016 12.8085 0.350959C16.7973 1.3479 19.3097 3.98899 20.3539 7.9657C20.564 8.76466 20.6112 9.61889 20.6413 10.451C20.6886 11.7052 20.6544 12.9625 20.6544 14.2187ZM18.8887 14.1936C18.8887 12.9715 18.9007 11.7484 18.8836 10.5264C18.8756 9.97566 18.8485 9.4199 18.762 8.87721C18.0214 4.25129 13.4155 1.02932 8.82076 1.90767C4.67521 2.6996 1.79796 6.12457 1.7658 10.3405C1.7467 12.9353 1.75675 15.5312 1.77384 18.126C1.77786 18.6748 1.81002 19.2386 1.93463 19.7702C2.74666 23.2444 4.86817 25.5508 8.33334 26.388C11.8045 27.2261 14.7371 26.1197 17.0355 23.3921C17.7872 22.5007 18.2997 21.4596 18.6173 20.341C18.8736 19.4375 18.9037 18.4989 18.8927 17.5592C18.8786 16.4377 18.8887 15.3151 18.8887 14.1936Z" fill="#7E7E7E"/>
<path d="M10.3343 39.0972C11.5634 38.2822 12.7884 37.4701 14.0135 36.6581C15.2396 35.8441 16.4626 35.026 17.6947 34.221C17.8706 34.1065 18.0807 34.012 18.2857 33.9818C18.6625 33.9266 18.9982 34.1376 19.1449 34.4602C19.2997 34.8009 19.2213 35.215 18.9429 35.4742C18.8585 35.5536 18.757 35.617 18.6605 35.6813C16.125 37.3646 13.5834 39.0399 11.0579 40.7383C10.5413 41.0861 10.1112 41.0881 9.59259 40.7393C7.09521 39.059 4.58075 37.4028 2.07333 35.7386C1.96177 35.6642 1.8452 35.5958 1.7447 35.5094C1.38793 35.2019 1.3216 34.7044 1.58189 34.3346C1.82912 33.9818 2.29844 33.8572 2.69742 34.0653C2.94867 34.1959 3.17981 34.3647 3.41699 34.5215C5.60483 35.9737 7.79066 37.4269 9.9785 38.8791C10.088 38.9495 10.2026 39.0158 10.3343 39.0972Z" fill="#7E7E7E"/>
<path d="M2.42508 29.8944C2.56176 29.9648 2.80999 30.0632 3.02706 30.207C5.3154 31.7185 7.59872 33.239 9.88505 34.7535C10.4197 35.1072 10.2669 35.0821 10.7493 34.7635C13.0246 33.2611 15.2928 31.7506 17.5651 30.2441C17.7179 30.1426 17.8716 30.0361 18.0395 29.9668C18.4354 29.803 18.8635 29.9507 19.0887 30.3075C19.3007 30.6431 19.2635 31.0853 18.9831 31.3717C18.8796 31.4783 18.751 31.5627 18.6264 31.6461C16.1049 33.3204 13.5763 34.9846 11.0649 36.673C10.5503 37.0197 10.1222 37.0348 9.60165 36.6841C7.0902 34.9947 4.56167 33.3304 2.04017 31.6561C1.91555 31.5727 1.78591 31.4903 1.67938 31.3858C1.42211 31.1336 1.35679 30.7356 1.5015 30.411C1.63517 30.1105 1.97183 29.8934 2.42508 29.8944Z" fill="#7E7E7E"/>
<path d="M9.44184 6.80888C9.44184 6.09032 9.43681 5.37076 9.44586 4.65219C9.44787 4.4713 9.46696 4.28136 9.52726 4.11353C9.65389 3.76279 9.94232 3.59797 10.3011 3.57084C10.6468 3.54471 11.0036 3.77887 11.1252 4.11453C11.1805 4.26729 11.2036 4.44014 11.2046 4.60396C11.2106 6.10841 11.2086 7.61287 11.2076 9.11732C11.2076 9.18365 11.2096 9.25199 11.2016 9.31731C11.1413 9.8188 10.7634 10.1675 10.2991 10.1504C9.85086 10.1344 9.48807 9.79669 9.45289 9.3143C9.42475 8.91532 9.44385 8.51232 9.44284 8.11134C9.44184 7.67819 9.44184 7.24303 9.44184 6.80888Z" fill="#7E7E7E"/>
</svg>
